# xmcd CD database file
#
# Track frame offsets:
#	150
#	22920
#	43648
#	61278
#	84953
#	105645
#	127633
#	151178
#	176613
#	196885
#	215775
#	235410
#	254045
#
# Disc length: 3726 seconds
#
# Revision: 0
# Processed by: cddbd v1.5PL3 Copyright (c) Steve Scherf et al.
# Submitted via: CDex 1.51
#
DISCID=a60e8c0d
DTITLE=WQXI-FM - 94-Q - The Best of the Jazz Flavours Cats IV
DYEAR=1988
DGENRE=Jazz
TTITLE0=Rebecca Grey
TTITLE1=Strokin'
TTITLE2=More Than Dream About You
TTITLE3=Arctic Dawn
TTITLE4=Holdin' Out
TTITLE5='88
TTITLE6=Hat Dance
TTITLE7=Good Life
TTITLE8=Second Chance
TTITLE9=Spies of Canaan
TTITLE10=Secret Lover
TTITLE11=Lifetimes
TTITLE12=Private Thoughts
EXTD=YEAR: 1988
EXTT0=
EXTT1=
EXTT2=
EXTT3=
EXTT4=
EXTT5=
EXTT6=
EXTT7=
EXTT8=
EXTT9=
EXTT10=
EXTT11=
EXTT12=
PLAYORDER=
